<svg width="24" height="24" xmlns="http://www.w3.org/2000/svg" class="ipc-icon ipc-icon--list-inline" viewBox="0 0 24 24" fill="currentColor" role="presentation"><path d="M1.5 13.5c.825 0 1.5-.675 1.5-1.5s-.675-1.5-1.5-1.5S0 11.175 0 12s.675 1.5 1.5 1.5zm0 5c.825 0 1.5-.675 1.5-1.5s-.675-1.5-1.5-1.5S0 16.175 0 17s.675 1.5 1.5 1.5zm0-10C2.325 8.5 3 7.825 3 7s-.675-1.5-1.5-1.5S0 6.175 0 7s.675 1.5 1.5 1.5zm4.857 5h16.286c.746 0 1.357-.675 1.357-1.5s-.61-1.5-1.357-1.5H6.357C5.611 10.5 5 11.175 5 12s.61 1.5 1.357 1.5zm0 5h16.286c.746 0 1.357-.675 1.357-1.5s-.61-1.5-1.357-1.5H6.357C5.611 15.5 5 16.175 5 17s.61 1.5 1.357 1.5zM5 7c0 .825.61 1.5 1.357 1.5h16.286C23.389 8.5 24 7.825 24 7s-.61-1.5-1.357-1.5H6.357C5.611 5.5 5 6.175 5 7zm-3.5 6.5c.825 0 1.5-.675 1.5-1.5s-.675-1.5-1.5-1.5S0 11.175 0 12s.675 1.5 1.5 1.5zm0 5c.825 0 1.5-.675 1.5-1.5s-.675-1.5-1.5-1.5S0 16.175 0 17s.675 1.5 1.5 1.5zm0-10C2.325 8.5 3 7.825 3 7s-.675-1.5-1.5-1.5S0 6.175 0 7s.675 1.5 1.5 1.5zm4.857 5h16.286c.746 0 1.357-.675 1.357-1.5s-.61-1.5-1.357-1.5H6.357C5.611 10.5 5 11.175 5 12s.61 1.5 1.357 1.5zm0 5h16.286c.746 0 1.357-.675 1.357-1.5s-.61-1.5-1.357-1.5H6.357C5.611 15.5 5 16.175 5 17s.61 1.5 1.357 1.5zM5 7c0 .825.61 1.5 1.357 1.5h16.286C23.389 8.5 24 7.825 24 7s-.61-1.5-1.357-1.5H6.357C5.611 5.5 5 6.175 5 7z"/></svg>