<svg width="24" height="24" xmlns="http://www.w3.org/2000/svg" class="ipc-icon ipc-icon--ascending" viewBox="0 0 24 24" fill="currentColor" role="presentation"><path d="M12 22a.968.968 0 01-.713-.288A.967.967 0 0111 21V5.825L7.1 9.7a.977.977 0 01-.688.288A.93.93 0 015.7 9.7a.948.948 0 01-.275-.7c0-.283.092-.517.275-.7l5.6-5.6c.1-.1.208-.17.325-.212.117-.042.242-.063.375-.063s.258.02.375.063a.877.877 0 01.325.212l5.6 5.6a.933.933 0 01.275.688c0 .275-.092.512-.275.712-.2.2-.438.3-.713.3a.973.973 0 01-.712-.3L13 5.825V21c0 .283-.096.52-.287.712A.968.968 0 0112 22z"/></svg>