<svg xmlns="http://www.w3.org/2000/svg" width="24" height="24" class="ipc-icon ipc-icon--grid-view" viewBox="0 0 24 24" fill="currentColor" role="presentation"><path d="M4.8 14h2.4c.44 0 .8-.3.8-.667v-2.666C8 10.3 7.64 10 7.2 10H4.8c-.44 0-.8.3-.8.667v2.666c0 .367.36.667.8.667zm0-6h2.4c.44 0 .8-.3.8-.667V4.667C8 4.3 7.64 4 7.2 4H4.8c-.44 0-.8.3-.8.667v2.666C4 7.7 4.36 8 4.8 8zm0 12h2.4c.44 0 .8-.3.8-.667v-2.666C8 16.3 7.64 16 7.2 16H4.8c-.44 0-.8.3-.8.667v2.666c0 .367.36.667.8.667zm6 0h2.4c.44 0 .8-.3.8-.667v-2.666c0-.367-.36-.667-.8-.667h-2.4c-.44 0-.8.3-.8.667v2.666c0 .367.36.667.8.667zm6 0h2.4c.44 0 .8-.3.8-.667v-2.666c0-.367-.36-.667-.8-.667h-2.4c-.44 0-.8.3-.8.667v2.666c0 .367.36.667.8.667zm-6-6h2.4c.44 0 .8-.3.8-.667v-2.666c0-.367-.36-.667-.8-.667h-2.4c-.44 0-.8.3-.8.667v2.666c0 .367.36.667.8.667zm0-6h2.4c.44 0 .8-.3.8-.667V4.667C14 4.3 13.64 4 13.2 4h-2.4c-.44 0-.8.3-.8.667v2.666c0 .367.36.667.8.667zm5.2 2.667v2.666c0 .367.36.667.8.667h2.4c.44 0 .8-.3.8-.667v-2.666c0-.367-.36-.667-.8-.667h-2.4c-.44 0-.8.3-.8.667zm0-6v2.666c0 .367.36.667.8.667h2.4c.44 0 .8-.3.8-.667V4.667C20 4.3 19.64 4 19.2 4h-2.4c-.44 0-.8.3-.8.667z"/></svg>